<svg width="32" height="32" viewBox="0 0 32 32" fill="none" xmlns="http://www.w3.org/2000/svg">
<rect width="32" height="32" rx="6" fill="#3B82F6"/>
<path d="M8 10.5C8 9.67157 8.67157 9 9.5 9H22.5C23.3284 9 24 9.67157 24 10.5V13H8V10.5Z" fill="white"/>
<path d="M8 14.5H24V21.5C24 22.3284 23.3284 23 22.5 23H9.5C8.67157 23 8 22.3284 8 21.5V14.5Z" fill="white"/>
<circle cx="10" cy="11.25" r="0.75" fill="#3B82F6"/>
<circle cx="12" cy="11.25" r="0.75" fill="#3B82F6"/>
<circle cx="14" cy="11.25" r="0.75" fill="#3B82F6"/>
<rect x="10" y="16.5" width="5" height="1.5" rx="0.75" fill="#3B82F6"/>
<rect x="10" y="18.5" width="8" height="1.5" rx="0.75" fill="#3B82F6"/>
<rect x="16.5" y="16.5" width="5" height="3.5" rx="0.75" fill="#3B82F6"/>
</svg>
