<svg width="48" height="48" viewBox="0 0 48 48" fill="none" xmlns="http://www.w3.org/2000/svg">
<rect width="48" height="48" rx="8" fill="#3B82F6"/>
<path d="M12 16C12 14.8954 12.8954 14 14 14H34C35.1046 14 36 14.8954 36 16V20H12V16Z" fill="white"/>
<path d="M12 22H36V32C36 33.1046 35.1046 34 34 34H14C12.8954 34 12 33.1046 12 32V22Z" fill="white"/>
<circle cx="15" cy="17" r="1" fill="#3B82F6"/>
<circle cx="18" cy="17" r="1" fill="#3B82F6"/>
<circle cx="21" cy="17" r="1" fill="#3B82F6"/>
<rect x="15" y="25" width="8" height="2" rx="1" fill="#3B82F6"/>
<rect x="15" y="28" width="12" height="2" rx="1" fill="#3B82F6"/>
<rect x="25" y="25" width="8" height="5" rx="1" fill="#3B82F6"/>
</svg>
